<svg xmlns="http://www.w3.org/2000/svg" viewBox="0 0 1024 1536"><defs><radialGradient id="bg" cx="50%" cy="44%" r="65%"><stop offset="0%" stop-color="#FFFDF8"/><stop offset="58%" stop-color="#F8F0E3"/><stop offset="100%" stop-color="#F1E3D0"/></radialGradient></defs><rect width="1024" height="1536" fill="url(#bg)"/><g transform="translate(0 40)"><path d="M404 730V562c0-59.6 48.4-108 108-108s108 48.4 108 108v168c0 15.5-12.5 28-28 28H432c-15.5 0-28-12.5-28-28Z" fill="none" stroke="#B29472" stroke-width="8" stroke-linecap="round"/><path d="M448 758c32-52 96-52 128 0" fill="none" stroke="#B29472" stroke-width="8" stroke-linecap="round"/><path d="M512 664v54" stroke="#8D6D4E" stroke-width="9" stroke-linecap="round"/><path d="M512 664c-42 0-68-30-67-57 36-10 67 12 67 57Z" fill="#8C9964"/><path d="M512 664c42 0 68-30 67-57-36-10-67 12-67 57Z" fill="#98A86F"/><circle cx="512" cy="560" r="18" fill="#F3A168"/><text x="512" y="880" text-anchor="middle" font-size="82" font-weight="600" font-family="serif" fill="#8D6D4E">아이키</text><text x="512" y="960" text-anchor="middle" font-size="30" font-weight="500" font-family="Arial, sans-serif" fill="#A98F74">데이터로 확인하는 우리 아이의 성장</text></g></svg>