<svg xmlns="http://www.w3.org/2000/svg" viewBox="0 0 720 720"><defs><radialGradient id="bg" cx="50%" cy="45%" r="55%"><stop offset="0" stop-color="#fffaf2"/><stop offset=".65" stop-color="#f6eadb"/><stop offset="1" stop-color="#ead6c0"/></radialGradient><filter id="shadow" x="-20%" y="-20%" width="140%" height="150%"><feDropShadow dx="0" dy="18" stdDeviation="22" flood-color="#8b6a4d" flood-opacity=".18"/></filter></defs><rect width="720" height="720" rx="160" fill="url(#bg)"/><g filter="url(#shadow)"><path d="M250 371V253c0-60.8 49.2-110 110-110s110 49.2 110 110v118c0 35.3-28.7 64-64 64h-92c-35.3 0-64-28.7-64-64Z" fill="#fff8ee" stroke="#ad8d6b" stroke-width="10"/><path d="M360 318c0-39 29-74 75-83 3 44-26 80-75 83Z" fill="#8fa266"/><path d="M360 318c0-39-29-74-75-83-3 44 26 80 75 83Z" fill="#a7b77b"/><path d="M360 323v82" stroke="#8b6f52" stroke-width="11" stroke-linecap="round"/><path d="M314 411h92" stroke="#8b6f52" stroke-width="11" stroke-linecap="round"/><circle cx="360" cy="205" r="21" fill="#f0a070"/></g><text x="360" y="530" text-anchor="middle" font-size="78" font-weight="700" font-family="Arial, sans-serif" fill="#8f9873">아이키</text><text x="360" y="590" text-anchor="middle" font-size="28" font-weight="500" font-family="Arial, sans-serif" fill="#9a8f83">데이터로 확인하는 우리 아이의 성장</text></svg>