<svg xmlns="http://www.w3.org/2000/svg" viewBox="0 0 512 512"><path d="M128 389V188C128 117 185 60 256 60s128 57 128 128v201c0 35-28 63-63 63H191c-35 0-63-28-63-63Z" fill="#F7EFE4" stroke="#6E5E4F" stroke-width="18"/><path d="M255 220c0-36 26-67 63-75 4 38-21 71-63 75Z" fill="#8AA274"/><path d="M255 220c0-36-26-67-63-75-4 38 21 71 63 75Z" fill="#9BB485"/><path d="M255 236v74M220 315h72" stroke="#6E5E4F" stroke-width="16" stroke-linecap="round"/><circle cx="256" cy="104" r="18" fill="#E9A27F"/></svg>